<svg width="22" height="22" viewBox="0 0 22 22" fill="none" xmlns="http://www.w3.org/2000/svg">
<g clip-path="url(#clip0_1385_558)">
<path d="M19.0428 19.0016L17.8731 6.12612C17.8573 5.95494 17.7782 5.79584 17.6511 5.68001C17.5241 5.56418 17.3584 5.5 17.1865 5.50004H15.1249V4.12503C15.1272 3.58279 15.0218 3.04548 14.8151 2.54418C14.6084 2.04289 14.3043 1.58756 13.9204 1.20453C13.5374 0.820699 13.0821 0.516613 12.5808 0.309865C12.0795 0.103117 11.5422 -0.00219025 10.9999 3.45289e-05C9.90629 0.00124767 8.85778 0.436234 8.08446 1.20956C7.31113 1.98288 6.87614 3.03139 6.87493 4.12503V5.50004H4.81243C4.64067 5.49983 4.47506 5.56401 4.3483 5.67991C4.22153 5.79581 4.14282 5.95502 4.12768 6.12612L2.9571 19.0016C2.92293 19.382 2.96819 19.7654 3.09001 20.1274C3.21183 20.4894 3.40756 20.8221 3.66476 21.1045C3.9227 21.3865 4.2365 21.6118 4.58622 21.7659C4.93593 21.9201 5.3139 21.9998 5.6961 22H16.3038C17.0756 22 17.8153 21.6746 18.3351 21.1045C18.592 20.8219 18.7876 20.4892 18.9094 20.1272C19.0312 19.7653 19.0766 19.382 19.0428 19.0016ZM8.24993 4.12503C8.24993 2.60795 9.48376 1.37503 10.9999 1.37503C11.3615 1.37358 11.7197 1.44372 12.054 1.5814C12.3883 1.71909 12.6921 1.9216 12.9477 2.17725C13.2034 2.4329 13.4059 2.73663 13.5436 3.07094C13.6812 3.40524 13.7514 3.76349 13.7499 4.12503V5.50004H8.24993V4.12503ZM17.3194 20.1777C17.1909 20.3192 17.0341 20.4322 16.8591 20.5093C16.6842 20.5863 16.4949 20.6258 16.3038 20.625H5.6961C5.3056 20.625 4.94443 20.4655 4.68135 20.1768C4.55149 20.0363 4.45284 19.8698 4.39186 19.6885C4.33088 19.5071 4.30895 19.3149 4.32751 19.1245L5.44035 6.87504H6.87401V8.93753C6.87401 9.11987 6.94645 9.29474 7.07538 9.42367C7.20431 9.5526 7.37918 9.62503 7.56151 9.62503C7.74385 9.62503 7.91872 9.5526 8.04765 9.42367C8.17658 9.29474 8.24901 9.11987 8.24901 8.93753V6.87504H13.749V8.93753C13.749 9.11987 13.8214 9.29474 13.9504 9.42367C14.0793 9.5526 14.2542 9.62503 14.4365 9.62503C14.6189 9.62503 14.7937 9.5526 14.9226 9.42367C15.0516 9.29474 15.124 9.11987 15.124 8.93753V6.87504H16.5586L17.6723 19.1263C17.7081 19.5159 17.5825 19.8899 17.3185 20.1786L17.3194 20.1777Z" fill="#626262"/>
</g>
<defs>
<clipPath id="clip0_1385_558">
<rect width="22" height="22" fill="white"/>
</clipPath>
</defs>
</svg>
